<?xml version="1.0" encoding="UTF-8" standalone="no"?>
<svg
   width="900px"
   height="900px"
   viewBox="0 0 900 900"
   version="1.1"
   xml:space="preserve"
   id="SVGRoot"
   sodipodi:docname="yuzone.svg"
   inkscape:version="1.4.4 (dcaf3e7d9e, 2026-05-05)"
   xmlns:inkscape="http://www.inkscape.org/namespaces/inkscape"
   xmlns:sodipodi="http://sodipodi.sourceforge.net/DTD/sodipodi-0.dtd"
   xmlns="http://www.w3.org/2000/svg"
   xmlns:svg="http://www.w3.org/2000/svg"><defs
   id="defs2" />
<sodipodi:namedview
   pagecolor="#a9a9a9"
   bordercolor="#292929"
   borderopacity="1"
   inkscape:showpageshadow="2"
   inkscape:pageopacity="0.0"
   inkscape:pagecheckerboard="0"
   inkscape:deskcolor="#232323"
   id="namedview1"
   inkscape:zoom="1.2202802"
   inkscape:cx="369.1775"
   inkscape:cy="546.18603"
   inkscape:window-width="1908"
   inkscape:window-height="1033"
   inkscape:window-x="0"
   inkscape:window-y="0"
   inkscape:window-maximized="0"
   inkscape:current-layer="SVGRoot" />
<style
   type="text/css"
   id="style1">
g.prefab path {
  vector-effect:non-scaling-stroke;
  -inkscape-stroke:hairline;
  fill: none;
  fill-opacity: 1;
  stroke-opacity: 1;
  stroke: #00349c;
}
</style>

<g
   inkscape:groupmode="layer"
   id="layer1"
   inkscape:label="Layer 1" /><path
   style="fill:#ffffff;stroke-width:0.819484"
   d="M 426.54138,848.55321 C 339.69641,842.8492 260.0588,811.14744 193.80795,755.9078 c -5.18324,-4.32175 -12.92736,-11.23748 -17.20917,-15.36829 l -7.78509,-7.51057 34.72288,-34.40854 34.72289,-34.40853 5.02208,4.52641 c 26.41781,23.8104 48.06638,38.68682 75.90744,52.16194 66.11768,32.00106 143.85503,38.58844 214.19826,18.15093 94.46777,-27.44665 169.12367,-98.45847 201.11952,-191.30254 9.41783,-27.32822 13.95379,-51.91162 16.2027,-87.81326 l 0.5005,-7.98997 h 49.17651 49.17651 l -0.54757,11.2679 c -1.46303,30.10623 -5.09748,55.98911 -11.48892,81.81885 -26.43135,106.81698 -94.08941,196.524 -189.72446,251.55336 -47.57575,27.37556 -104.53529,45.45503 -159.79936,50.72175 -16.80113,1.60116 -46.79551,2.20922 -61.46129,1.24597 z"
   id="path8" /><path
   style="fill:#ffffff;stroke-width:0.819484"
   d="m 71.845715,577.12155 c -10.886223,-32.53279 -16.916971,-61.9039 -19.80524,-96.45603 -1.09869,-13.14354 -1.09869,-48.39416 0,-61.5377 6.415017,-76.74234 33.203058,-147.69436 78.731445,-208.53165 54.7144,-73.1121 134.33447,-125.903751 222.99913,-147.858334 33.19602,-8.21979 61.02414,-11.56898 96.12562,-11.56898 49.01141,0 91.35854,7.434045 137.30996,24.104783 93.64667,33.974121 172.91203,104.240491 218.30073,193.517081 6.70074,13.1799 16.03646,34.11878 16.0123,35.91361 -0.0116,0.85755 -88.45739,35.81095 -90.58025,35.79692 -0.47285,-0.003 -1.34978,-1.38856 -1.94873,-3.07875 -2.41203,-6.80661 -10.11199,-22.90718 -15.99995,-33.4558 -29.50202,-52.85461 -73.93556,-95.62603 -126.92919,-122.18117 -16.4329,-8.23455 -24.19028,-11.46055 -41.10474,-17.09394 -22.89713,-7.62593 -44.7064,-12.15731 -69.24639,-14.38757 -13.90414,-1.26364 -50.62234,-0.54884 -63.91974,1.24434 -49.00375,6.60826 -96.06909,24.87977 -134.80511,52.33349 -59.02602,41.83402 -100.75022,102.29702 -118.41271,171.59316 -6.32146,24.80133 -8.99563,46.77397 -9.00758,74.01192 -0.0154,35.05508 4.33673,62.86279 14.80703,94.60929 2.66825,8.09029 4.57474,14.97662 4.23664,15.30295 -0.70711,0.6825 -89.199302,35.13641 -90.24512,35.13641 -0.380031,0 -3.313178,-7.83631 -6.518105,-17.41403 z"
   id="path9" /><path
   style="fill:#ffffff;stroke-width:0.819484"
   d="m 438.83364,648.94639 c -21.08663,-1.82975 -34.7294,-4.52166 -52.03723,-10.26766 C 324.15525,617.88255 274.6075,565.35025 257.82056,501.9339 c -4.81323,-18.18304 -5.97381,-26.71192 -6.41199,-47.12033 -0.44632,-20.78776 0.5059,-31.38503 4.38128,-48.75929 9.11031,-40.84369 32.08153,-79.05471 64.06213,-106.56284 30.33794,-26.09521 65.86278,-41.91392 105.86991,-47.14236 14.16106,-1.85068 42.98062,-1.26297 56.95414,1.16144 41.52219,7.20413 77.88795,25.96165 107.41341,55.40404 5.89287,5.87629 12.76698,13.28757 15.27582,16.46952 23.06694,29.25563 37.86045,64.58854 42.52502,101.56704 1.48851,11.80014 1.27448,37.2084 -0.41417,49.16903 -4.33088,30.6754 -14.82592,58.50096 -31.58073,83.73018 -31.27097,47.08748 -81.37597,78.98199 -136.87351,87.1273 -10.26955,1.50725 -32.79176,2.61058 -40.18823,1.96876 z m 31.33187,-100.38498 c 19.70047,-3.90591 36.57809,-12.9715 51.00124,-27.39466 19.40698,-19.40697 29.32958,-43.51863 29.32958,-71.27008 0,-34.08829 -16.3622,-64.85453 -44.46501,-83.60865 -12.04037,-8.03502 -24.71188,-13.1025 -38.82796,-15.52775 -9.35942,-1.60801 -25.33274,-1.59964 -34.60979,0.0181 -41.56388,7.24814 -74.56702,40.25128 -81.81516,81.81516 -1.61778,9.27705 -1.62615,25.25037 -0.0181,34.60979 5.87274,34.18208 29.25711,63.20623 61.35112,76.14757 18.45552,7.44187 37.96693,9.19307 58.05412,5.21048 z"
   id="path10" /></svg>
