<?xml version="1.0" encoding="UTF-8" standalone="no"?>
<svg
   width="900px"
   height="900px"
   viewBox="0 0 900 900"
   version="1.1"
   xml:space="preserve"
   id="SVGRoot"
   sodipodi:docname="yuzone.svg"
   inkscape:version="1.4.4 (dcaf3e7d9e, 2026-05-05)"
   xmlns:inkscape="http://www.inkscape.org/namespaces/inkscape"
   xmlns:sodipodi="http://sodipodi.sourceforge.net/DTD/sodipodi-0.dtd"
   xmlns="http://www.w3.org/2000/svg"
   xmlns:svg="http://www.w3.org/2000/svg"><defs
   id="defs2" />
<sodipodi:namedview
   pagecolor="#a9a9a9"
   bordercolor="#292929"
   borderopacity="1"
   inkscape:showpageshadow="2"
   inkscape:pageopacity="0.0"
   inkscape:pagecheckerboard="0"
   inkscape:deskcolor="#232323"
   id="namedview1"
   inkscape:zoom="0.66276075"
   inkscape:cx="506.97028"
   inkscape:cy="418.70313"
   inkscape:window-width="1908"
   inkscape:window-height="1033"
   inkscape:window-x="0"
   inkscape:window-y="0"
   inkscape:window-maximized="0"
   inkscape:current-layer="layer1" />
<style
   type="text/css"
   id="style1">
g.prefab path {
  vector-effect:non-scaling-stroke;
  -inkscape-stroke:hairline;
  fill: none;
  fill-opacity: 1;
  stroke-opacity: 1;
  stroke: #00349c;
}
</style>

<g
   inkscape:groupmode="layer"
   id="layer1"
   inkscape:label="Layer 1"><path
     style="opacity:1;fill:#ffffff;stroke-width:1.08563;stroke-dasharray:none"
     d="m 446.74311,874.13844 c -3.08236,-0.35914 -12.44956,-1.42607 -20.81598,-2.37094 -80.4288,-9.08333 -162.54104,-47.19812 -222.12379,-103.10525 l -9.25392,-8.68306 20.79289,-20.91381 20.79288,-20.91382 h 13.23325 13.23325 v 4.80369 4.80369 h 22.50622 22.50622 l 14.72426,8.66569 c 85.72529,50.45202 192.14694,54.72907 282.56258,11.35607 58.7964,-28.20504 103.77634,-71.67596 137.10793,-132.50815 l 5.92214,-10.8083 h 51.96161 c 28.57888,0 51.9616,0.22086 51.9616,0.49081 0,0.26994 -2.88836,7.90234 -6.41858,16.96088 -25.67456,65.8809 -72.75632,128.12414 -129.75679,171.54167 -55.23724,42.07447 -118.8365,68.24863 -190.47551,78.38979 -12.56012,1.77801 -68.77525,3.41947 -78.46026,2.29104 z"
     id="path23" /><path
     style="opacity:1;fill:#ffffff;stroke-width:1.08563;stroke-dasharray:none"
     d="m 763.78661,561.92095 c 0,-0.52632 1.39334,-6.48115 3.0963,-13.23296 4.88492,-19.36739 6.77309,-31.70627 7.88181,-51.50614 l 1.03112,-18.41414 48.4372,-0.42379 48.4372,-0.42378 -0.002,11.63239 c -0.002,12.9237 -3.8822,48.02414 -6.94991,62.87175 l -1.98502,9.60738 -49.97338,0.42312 c -27.48536,0.23271 -49.97338,-0.008 -49.97338,-0.53383 z"
     id="path24" /><path
     style="opacity:1;fill:#ffffff;stroke-width:1.08563;stroke-dasharray:none"
     d="M 96.284316,602.46271 C 63.234071,499.26521 71.100885,391.28239 118.5436,296.92354 141.08883,252.08328 178.4368,204.7615 216.45784,172.86119 l 14.22808,-11.9376 H 353.9262 477.16648 v 4.80369 4.80369 h 98.47563 98.47563 v -11.20861 -11.2086 h -24.81906 -24.81906 v -20.01538 c 0,-14.30314 0.53883,-20.01537 1.88804,-20.01537 3.47924,0 43.58524,20.40939 58.15808,29.59584 63.79696,40.21642 114.93767,96.83902 147.22317,163.00439 6.53929,13.40152 12.31312,25.88526 12.8307,27.74161 0.81618,2.92727 -0.30739,3.83043 -8.46607,6.80523 -8.73213,3.1839 -12.46111,3.43002 -51.96774,3.43002 -40.30143,0 -42.61149,-0.16034 -43.51937,-3.02085 -1.67585,-5.2801 -16.45184,-28.64275 -26.28629,-41.5618 -65.19401,-85.64241 -172.83093,-130.55013 -279.02398,-116.41294 -65.12826,8.67035 -122.87365,36.6366 -169.92896,82.29706 -27.50983,26.69435 -44.49843,50.03791 -61.3526,84.30284 -35.24295,71.64978 -40.57146,152.11098 -15.1046,228.08176 3.41226,10.1792 5.71228,18.94989 5.11115,19.49041 -0.60113,0.54055 -14.43609,6.48511 -30.74436,13.21015 l -29.6514,12.22736 h -16.30878 -16.30877 z"
     id="path25" /><path
     style="opacity:1;fill:#ffffff;stroke-width:1.08563;stroke-dasharray:none"
     d="m 327.9937,105.63612 c 10.88579,-4.72731 40.01711,-13.681722 57.10207,-17.552077 32.63079,-7.392041 52.01537,-9.46298 88.86825,-9.494184 35.8569,-0.03036 49.61401,1.292548 82.91325,7.973084 18.22074,3.655471 59.00698,15.953197 65.55877,19.767047 1.97273,1.14835 -43.51964,1.65135 -148.47202,1.64166 -133.57566,-0.0123 -150.68945,-0.28617 -145.97032,-2.33553 z"
     id="path26" /><path
     style="opacity:1;fill:#ffffff;stroke-width:0.328386;stroke-dasharray:none"
     d="m 329.35463,138.28051 v -1.93738 H 431.7936 534.23258 v 1.93738 1.93738 H 431.7936 329.35463 Z"
     id="path27" /><path
     style="opacity:1;fill:#ffffff;stroke-width:0.328386;stroke-dasharray:none"
     d="m 479.01724,154.02172 v -4.60128 h 71.92524 71.92524 v 4.60128 4.60128 h -71.92524 -71.92524 z"
     id="path28" /><path
     style="opacity:1;fill:#ffffff;stroke-width:0.328386;stroke-dasharray:none"
     d="m 120.60191,146.2722 v -12.3508 h 23.49074 23.49073 v -3.14824 -3.14824 h -23.49073 -23.49074 v -3.14825 -3.14824 h 32.45112 32.45112 v -5.32779 -5.3278 l 62.84377,0.0328 c 46.75196,0.0244 62.53371,0.17148 61.6329,0.57445 -18.35185,8.20949 -40.13175,20.29529 -57.56525,31.94329 -7.78352,5.20048 -17.27964,11.94502 -20.0882,14.26749 l -1.36911,1.13215 h -55.17817 -55.17818 z"
     id="path29" /><path
     style="opacity:1;fill:#ffffff;stroke-width:0.328386;stroke-dasharray:none"
     d="m 95.900318,131.01533 v -2.42172 h 11.624282 11.62428 v 2.42172 2.42173 H 107.5246 95.900318 Z"
     id="path30" /><path
     style="opacity:1;fill:#ffffff;stroke-width:0.328386;stroke-dasharray:none"
     d="m 82.823002,113.33674 v -7.023 h 50.856228 50.85623 v 1.45303 1.45304 h -32.69329 -32.69329 v 5.56996 5.56997 H 100.98594 82.823002 Z"
     id="path31" /></g><path
   style="opacity:1;fill:#ffffff;stroke-width:0.391758;stroke-dasharray:none"
   d="m 263.48349,711.57878 v -4.62252 l 9.10058,0.002 9.10059,0.002 5.48924,4.38339 c 3.01908,2.41087 5.59758,4.49 5.72999,4.62028 0.13242,0.13028 -6.433,0.23687 -14.58982,0.23687 h -14.83058 z"
   id="path38" /><path
   style="opacity:1;fill:#ffffff;stroke-width:0.391758;stroke-dasharray:none"
   d="m 303.36579,722.12389 -6.55691,-4.47806 29.56248,-0.1497 29.56248,-0.1497 v -5.19509 -5.19508 h 50.84769 50.8477 v 9.82285 9.82285 H 383.77596 309.9227 Z"
   id="path39" /><path
   style="opacity:1;fill:#ffffff;stroke-width:0.396404;stroke-dasharray:none"
   d="m 596.94423,597.82123 v -5.84667 h 19.94589 19.9459 l -1.03439,1.60784 c -0.56891,0.8843 -2.50664,3.50319 -4.30607,5.81975 l -3.27169,4.21191 -15.63982,0.0269 -15.63982,0.0269 z"
   id="path45" /><path
   style="opacity:1;fill:#ffffff;stroke-width:0.396404;stroke-dasharray:none"
   d="m 717.38547,597.52889 v -6.13899 h -39.17264 c -21.54495,0 -39.17263,-0.13094 -39.17263,-0.29098 0,-0.16004 0.88644,-1.54131 1.96986,-3.0695 2.79588,-3.94362 8.60381,-13.72168 11.11368,-18.71067 l 2.13248,-4.23883 h 53.18017 53.18017 l -2.94933,8.53812 c -2.75461,7.97439 -9.39709,24.53717 -11.37305,28.35825 l -0.87476,1.6916 h -14.01697 -14.01698 z"
   id="path46" /><path
   style="opacity:1;fill:#ffffff;stroke-width:0.396404;stroke-dasharray:none"
   d="m 623.36722,610.76703 c 0.42019,-0.5974 1.74993,-2.176 2.95496,-3.508 l 2.19098,-2.42181 h 43.85149 43.85149 v 3.508 3.508 h -46.80645 c -45.4965,0 -46.78507,-0.0304 -46.04247,-1.08619 z"
   id="path47" /><path
   style="opacity:1;fill:#ffffff;stroke-width:0.396404;stroke-dasharray:none"
   d="m 855.03006,601.18306 c 3.66014,-11.70868 5.81151,-19.21862 7.73293,-26.99387 l 2.25071,-9.10774 10.37782,-7.7e-4 10.37783,-7.6e-4 v 19.29398 19.29399 H 870.01132 854.2533 Z"
   id="path48" /><path
   style="opacity:1;fill:#ffffff;stroke-width:0.396404;stroke-dasharray:none"
   d="m 864.69109,386.31822 c -1.86201,-8.9702 -10.6674,-38.98578 -13.20689,-45.0193 -0.24193,-0.5748 3.26046,-0.73084 16.40411,-0.73084 h 16.71171 v 24.55598 24.55599 h -9.60555 -9.60554 z"
   id="path50" /><path
   style="opacity:1;fill:#ffffff;stroke-width:0.396404;stroke-dasharray:none"
   d="m 716.80081,361.6016 v -21.03352 h 12.31977 12.31977 l 3.52612,7.42691 c 3.73084,7.85813 8.87148,20.06381 8.56069,20.32607 -0.14766,0.12459 -28.66134,11.25072 -35.11852,13.70335 l -1.60783,0.6107 z"
   id="path51" /><path
   style="opacity:1;fill:#ffffff;stroke-width:0.396404;stroke-dasharray:none"
   d="m 716.91642,386.66787 0.17672,-3.01217 18.41699,-7.16482 c 13.63104,-5.30293 18.5262,-6.97307 18.83727,-6.42695 0.23115,0.40583 1.8628,4.98548 3.62589,10.17699 l 3.20561,9.43913 h -22.2196 -22.2196 z"
   id="path52" /><path
   style="opacity:1;fill:#ffffff;stroke-width:0.334589;stroke-dasharray:none"
   d="m 20.726743,667.94107 v -47.87181 l 40.010327,0.12627 40.01033,0.12628 2.61573,6.41542 c 12.11113,29.70408 27.55068,57.72488 45.74996,83.03035 l 4.34769,6.0453 H 87.093759 20.726743 Z"
   id="path53" /><path
   style="opacity:1;fill:#ffffff;stroke-width:0.334589;stroke-dasharray:none"
   d="m 277.32462,701.93006 c -7.32434,-6.29482 -25.30662,-24.6281 -31.88326,-32.50561 -11.38329,-13.63491 -21.3242,-27.7357 -29.74612,-42.19373 l -4.0245,-6.90891 61.50919,-0.1253 61.5092,-0.1253 3.77444,3.53589 c 2.07594,1.94474 6.49482,5.75207 9.81974,8.46074 l 6.0453,4.92484 v 34.47516 34.47516 h -36.16737 -36.16737 z"
   id="path54" /><path
   style="opacity:1;fill:#ffffff;stroke-width:0.443807;stroke-dasharray:none"
   d="m 457.55321,675.14736 c -34.21726,-3.10354 -65.24814,-14.05137 -94.09624,-33.19758 l -7.36406,-4.88746 v -9.40455 -9.40454 h -11.09939 -11.0994 l -6.84435,-7.69135 c -17.56217,-19.73549 -28.72433,-37.59574 -37.94363,-60.71253 -9.5533,-23.95426 -13.75936,-46.38103 -13.74966,-73.31325 0.0117,-32.51342 5.9199,-58.46849 19.83937,-87.15579 14.79854,-30.49898 36.60395,-56.25824 64.178,-75.81503 25.32844,-17.96409 54.12364,-29.51555 86.06958,-34.52761 12.56238,-1.97094 44.27731,-2.14813 55.96681,-0.3127 38.45445,6.03796 69.05629,19.2577 98.18738,42.41612 8.72351,6.93495 22.95419,21.1487 30.07824,30.04245 22.06408,27.54508 36.59875,60.58346 41.97583,95.41419 1.76725,11.44757 2.43323,36.30224 1.29806,48.44396 -1.99787,21.36904 -7.47079,42.2181 -16.467,62.73089 l -2.69731,6.15029 h -29.05766 -29.05765 v 13.74624 13.74623 h -37.31121 -37.3112 v 10.80061 10.80062 h 49.24198 49.24198 l -5.22131,5.28985 c -29.77683,30.16774 -71.01213,50.1953 -115.19117,55.94716 -9.61847,1.25227 -32.24852,1.73887 -41.56599,0.89378 z m 36.00204,-100.08508 c 40.18209,-8.1801 70.32594,-37.81679 79.31958,-77.98505 1.33847,-5.97806 1.51932,-8.48671 1.50439,-20.86842 -0.0145,-12.03557 -0.22332,-14.99134 -1.44185,-20.41169 -4.56477,-20.30528 -13.03478,-35.73489 -27.62661,-50.32672 -12.09702,-12.09702 -24.6454,-19.85356 -39.97302,-24.70857 -10.61188,-3.3613 -15.29376,-4.11817 -27.81976,-4.49731 -10.03769,-0.30382 -12.95445,-0.15637 -19.69667,0.99575 -55.09789,9.41522 -91.82691,61.2739 -82.40919,116.35572 5.26736,30.80742 25.83868,58.45745 54.02278,72.61236 10.16549,5.10541 23.99304,9.13151 35.64601,10.37885 6.21371,0.66513 21.76214,-0.17847 28.47434,-1.54492 z"
   id="path55" /></svg>
